<?xml version="1.0" encoding="UTF-8"?><svg id="uuid-179c6fe6-8c2e-4981-a852-069aa52d48d3" xmlns="http://www.w3.org/2000/svg" xmlns:xlink="http://www.w3.org/1999/xlink" viewBox="0 0 201.39 62.11"><defs><clipPath id="uuid-f6d52ad4-694b-462b-b367-c1638b2098b1"><rect x="339.98" y="-186.69" width="728" height="90" fill="none"/></clipPath><clipPath id="uuid-3ec97ef8-f62b-4f03-b122-7a5ab0daacf5"><rect x="339.98" y="-186.69" width="728" height="90" fill="none"/></clipPath><clipPath id="uuid-6cb7ba91-0dcc-4706-a83e-db982f210f3c"><rect x="339.98" y="-363.62" width="728" height="90" fill="none"/></clipPath><clipPath id="uuid-9c7b3c6b-ea3d-4c6a-b866-88de2a237643"><rect x="339.98" y="-363.62" width="728" height="90" fill="none"/></clipPath><clipPath id="uuid-66175de3-b18b-462a-87f9-bb4c94513850"><rect x="-663.42" y="-363.62" width="728" height="90" fill="none"/></clipPath><image id="uuid-b6272f47-15c6-4636-a929-834153e7a1dd" width="2500" height="2378" xlink:href="../Links/14052_KP_Simple_Cheap_2022_Port_RGB_HD.png"/></defs><g clip-path="url(#uuid-f6d52ad4-694b-462b-b367-c1638b2098b1)"><use transform="translate(187.26 -511.35) scale(.3)" xlink:href="#uuid-b6272f47-15c6-4636-a929-834153e7a1dd"/></g><g clip-path="url(#uuid-3ec97ef8-f62b-4f03-b122-7a5ab0daacf5)"><use transform="translate(187.26 -511.35) scale(.3)" xlink:href="#uuid-b6272f47-15c6-4636-a929-834153e7a1dd"/></g><g clip-path="url(#uuid-6cb7ba91-0dcc-4706-a83e-db982f210f3c)"><use transform="translate(187.26 -688.29) scale(.3)" xlink:href="#uuid-b6272f47-15c6-4636-a929-834153e7a1dd"/></g><g clip-path="url(#uuid-9c7b3c6b-ea3d-4c6a-b866-88de2a237643)"><use transform="translate(187.26 -688.29) scale(.3)" xlink:href="#uuid-b6272f47-15c6-4636-a929-834153e7a1dd"/></g><g clip-path="url(#uuid-66175de3-b18b-462a-87f9-bb4c94513850)"><use transform="translate(-681.34 -685.99) scale(.3)" xlink:href="#uuid-b6272f47-15c6-4636-a929-834153e7a1dd"/></g><path d="M100.55,31.13c-.14-.07-.27-.12-.41-.16-.26-.08-.54,.02-.71,.23-3.44,4.3-7.02,6.7-11.21,8.4l9.99-17.21c.12-.21-.03-.48-.28-.48h-3.04c-1.13,0-2.18,.6-2.75,1.57l-.53,.9c-.22-1.49-1.9-2.94-4.54-2.94-6.19,0-10.8,7.86-12.41,12.83-2.42,2.51-4.7,4.17-6.21,4.17-.7,0-1.81-.4,.67-4.65l2.95-5.09c1.09-1.93,1.7-3.31,1.79-4.36,.16-1.85-1.29-2.91-3.44-2.91-2.42,0-5.03,1.16-6.72,2.36l.81-1.41c.12-.21-.03-.48-.28-.48h-3.02c-1.14,0-2.19,.61-2.76,1.6l-6.42,11.15c-2.27,2.29-4.39,3.78-5.78,3.78-.88,0-1.66-.65,.63-4.65l5.54-9.57c.12-.21-.03-.48-.28-.48h-3.16c-1.15,0-2.04,.62-2.6,1.62l-5.04,8.75c-1.55,2.39-3.19,3.95-4.62,3.95-.88,0-2.23-.65-1.26-4.65l.32-1.26c.64-2.43,.86-5.33-1.81-6.83,4.55-.65,8.16-3.74,10.92-8.57l.35-.61c1.48-2.5,2.81-2.98,4.43-2.99,.92,0,1.74-.58,2.06-1.44l.48-1.31c.07-.19-.05-.4-.25-.42-6.09-.9-9.41,1.37-11.49,5l-1.18,2.14c-2.98,4.87-5.95,6.18-10.03,5.45,0,0,3.9-6.51,6.16-9.65,.22-.3,0-.72-.37-.72-6.61,.03-16.3,3.1-16.53,3.17-4.11,1.43-7.29,3.45-7.63,7.27-.33,3.35,2.3,6.12,6.78,6.34,.32,.02,.6-.23,.63-.55l.12-1.41c.08-.87-.45-1.67-1.27-1.97-1.09-.4-1.83-1.28-1.72-2.56,.33-3.78,7.13-4.5,12-5.85l-8,13.92c-2.67,4.83-5.72,7.99-10.12,7.99-3.3,0-4.93-2.03-4.76-3.96,.14-1.63,1.66-3.89,5.23-3.87,.3,0,.55-.22,.57-.52,.16-1.83-1.52-3.31-3.3-2.87C3.12,28.3,.32,31.2,.03,34.55c-.35,3.96,2.8,7.7,9.1,7.7,4.09,0,9.96-1.6,14.08-8.97l4.54-8.1,.15,.03c2.56,1.02,3.69,3.1,2.9,6.78l-.03,.12c-1.64,6.54,.95,9.13,5.02,9.13,1.78,0,3.33-.99,4.7-2.03,.51,1.45,2.02,2.03,3.91,2.03s3.78-.7,5.6-1.88c.22,.78,.92,1.41,1.84,1.41h1.74c.23,0,.44-.12,.55-.32l7.34-12.72c2.05-1.78,4.24-2.62,5.38-2.62,.66,0,1.16,.29,1.12,.8-.05,.55-.83,1.89-1.86,3.67l-1.62,2.87c-3.68,6.36-1.91,8.79,2.05,8.79,2.61,0,5.13-1.27,7.54-3.27,.23,1.86,1.58,3.27,4,3.27,3.08,0,5.24-2.51,5.24-2.51l-1.51,2.65c-1.01,.47-3.64,1.31-5.23,1.93-2.46,.91-5.28,2.75-5.68,5.03-.41,2.35,1.18,4.41,4.23,4.41,4.67,0,8.54-5.41,9.99-7.75,.98-1.59,1.54-2.49,1.54-2.49,4.39-1.66,9.39-3.66,14.28-9.52,.5-.6,.32-1.52-.39-1.86m-25.43,18.36c-.83,0-1.37-.4-1.32-1.04,.08-.92,1.31-1.68,2.48-2.25,1.37-.68,2.67-1.04,4.13-1.6h0c-2.03,3.77-4.02,4.85-5.29,4.89m10.68-15s-2.61,3.12-5.12,3.12c-.97,0-1.41-.47-1.33-1.45,.23-2.69,4.61-10.97,8.53-10.97,2.11,0,1.9,2.4,1.9,2.4l-3.99,6.9Zm64.36-15.74c.12-1.42,1.59-2.54,3.3-2.54s3.03,1.13,2.9,2.54c-.12,1.38-1.63,2.54-3.35,2.54s-2.98-1.16-2.86-2.54m-37.62,11.8l-4.92,8.57c-.58,1.01-1.66,1.64-2.83,1.64h-2.96c-.25,0-.41-.27-.28-.49l11.87-20.65c1.12-1.94,3.19-3.82,5.74-4.56,1.24-.36,2.54,.34,2.9,1.58,.1,.36-.06,.74-.4,.9-.82,.39-2.33,1.33-3.51,3.32l-3.99,6.87c6.96,2.98,13.55-2.11,14.02-7.45,.32-3.63-2.45-7.48-8.97-7.48-8.1,0-12.77,5.56-13.11,9.41-.05,.55,0,1.07,.09,1.53,.24,1.19-.27,2.4-1.32,3.01l-.92,.54c-.54,.32-1.24,.1-1.5-.47-.45-.98-.97-2.58-.8-4.5,.52-5.99,6.91-13.01,17.91-13.01,9.2,0,14.13,5.05,13.62,10.86-.65,7.45-9.61,14.71-20.63,10.39m79.88,.48c-.1-.03-.19-.06-.29-.08-.18-.04-.36,.03-.48,.18-3.64,4.48-8.43,7.33-12.71,7.33-5.58,0-3-4.94-3-4.94,6.41,.65,10.22-.69,12.66-4.43,3.04-4.64,.45-7.62-4.08-7.62-7.36,0-12.79,7.43-14.01,12.59-3.12,2.75-6.69,4.39-9.78,4.39-1.98,0-3.93-.8-3.76-2.79,.23-2.65,4.45-10.6,8.58-10.6,1.15,0,1.36,.59-.01,2.93-.59,1,.13,2.26,1.29,2.26h2.11c.36,0,.7-.18,.89-.49,3.35-5.06,1.29-8.3-3.74-8.3-7.77,0-13.39,8.48-14.07,13.64-2.1,2.03-4.02,3.33-5.32,3.33-.88,0-1.66-.65,.63-4.65l5.47-9.57c.12-.21-.03-.48-.28-.48h-3.01c-1.01,0-1.95,.48-2.54,1.28-.12,.16-.28,.28-.47,.35-1.13,.44-2.25,.67-3.34,.67-3.1,0-3.38-1.9-3.15-3.35,.07-.42-.27-.79-.69-.79h-2.36c-.86,0-1.65,.46-2.08,1.2l-9.88,17.16c-.13,.22,.03,.49,.28,.49h3.11c1.08,0,2.07-.58,2.61-1.51l6.54-11.36c1.04,.63,2.44,.96,4.22,.96,1.12,0,2.19-.14,3.21-.38l-2.29,4.02c-.63,1.09-1.09,2.06-1.41,2.93-.88,2.44-1.21,5.83,3.55,5.83,2.56,0,5.06-1.27,7.45-3.25,.79,2.11,3.07,3.26,6.77,3.26,4.51,0,8.29-1.72,11.33-4.03,.51,2.61,2.87,4.03,7.02,4.03,6.96,0,12.2-4.07,15.61-8.13,.59-.7,.29-1.78-.57-2.09m-8.53-5.93c1.49,0,1.45,1.02,.23,2.94-1.22,1.92-2.96,3.67-7.04,3.08,0,0,3.17-6.02,6.82-6.02M53.09,16.2c1.72,0,3.03,1.13,2.9,2.54-.12,1.38-1.63,2.54-3.35,2.54s-2.98-1.16-2.86-2.54c.12-1.42,1.59-2.54,3.3-2.54M20.16,4.98c-.15-.22,.02-.52,.29-.5,3,.19,5.49,.91,6.15,1.12,.1,.03,.21-.01,.25-.1,.35-.66,1.79-3.24,3.78-5.39,.12-.13,.32-.14,.44-.02,1.93,1.71,3.49,4.03,3.89,4.66,.06,.09,.17,.12,.27,.07,.62-.32,2.91-1.38,5.92-1.68,.27-.03,.45,.27,.3,.49-1.43,2.08-3.56,5.3-4.04,6.02-.06,.09-.16,.14-.27,.14-3.49-.15-6.6,.09-12.58,1.45-.13,.03-.26-.02-.33-.13-1.26-1.94-2.64-4.04-4.07-6.13M106.84,52.93h1.99v9.03h-1.99v-9.03Zm11.16,9.03l-4.37-5.74v5.74h-1.96v-9.03h1.83l4.23,5.56v-5.56h1.96v9.03h-1.69Zm7.69,.13c-1.37,0-2.75-.48-3.83-1.44l1.17-1.41c.81,.67,1.66,1.1,2.7,1.1,.81,0,1.3-.32,1.3-.85v-.03c0-.5-.31-.76-1.82-1.15-1.82-.46-2.99-.97-2.99-2.76v-.03c0-1.64,1.32-2.72,3.16-2.72,1.31,0,2.44,.41,3.35,1.15l-1.03,1.5c-.8-.55-1.59-.89-2.35-.89s-1.16,.35-1.16,.79v.03c0,.59,.39,.79,1.95,1.19,1.83,.48,2.86,1.13,2.86,2.71v.03c0,1.79-1.37,2.8-3.31,2.8m9.37,.01c-2.42,0-3.91-1.35-3.91-4.01v-5.16h1.99v5.11c0,1.47,.74,2.23,1.95,2.23s1.95-.74,1.95-2.17v-5.17h1.99v5.09c0,2.73-1.53,4.08-3.96,4.08m12.16-.14l-1.93-2.89h-1.56v2.89h-1.99v-9.03h4.13c2.13,0,3.4,1.12,3.4,2.98v.03c0,1.46-.79,2.37-1.93,2.8l2.21,3.22h-2.32Zm.04-5.94c0-.85-.59-1.29-1.56-1.29h-1.97v2.59h2.01c.97,0,1.52-.52,1.52-1.28v-.03Zm11.35,5.94l-.82-2.02h-3.82l-.83,2.02h-2.02l3.87-9.09h1.83l3.87,9.09h-2.08Zm-2.73-6.7l-1.2,2.93h2.4l-1.2-2.93Zm13.03,6.7l-4.37-5.74v5.74h-1.96v-9.03h1.83l4.23,5.56v-5.56h1.96v9.03h-1.69Zm8.68,.16c-2.66,0-4.63-2.05-4.63-4.64v-.03c0-2.57,1.93-4.67,4.71-4.67,1.7,0,2.72,.57,3.56,1.39l-1.26,1.46c-.7-.63-1.41-1.02-2.31-1.02-1.52,0-2.62,1.26-2.62,2.81v.03c0,1.55,1.07,2.84,2.62,2.84,1.03,0,1.66-.41,2.37-1.06l1.26,1.28c-.93,.99-1.96,1.61-3.7,1.61m5.75-.16v-9.03h6.81v1.77h-4.84v1.83h4.26v1.77h-4.26v1.9h4.9v1.77h-6.87Zm11.38-39.54h2.69v.66h-.99v2.59h-.71v-2.59h-.99v-.66Zm6.69,0v3.25h-.71v-2.12l-.91,1.39h-.02l-.9-1.37v2.11h-.7v-3.25h.77l.85,1.37,.85-1.37h.77Z" fill="#fff"/></svg>